<?xml version="1.0" encoding="utf-8"?>
<!-- Generator: Adobe Illustrator 24.0.2, SVG Export Plug-In . SVG Version: 6.00 Build 0)  -->
<svg version="1.1" id="Слой_1" xmlns="http://www.w3.org/2000/svg" xmlns:xlink="http://www.w3.org/1999/xlink" x="0px" y="0px"
	 viewBox="0 0 512 512" style="enable-background:new 0 0 512 512;" xml:space="preserve">
<style type="text/css">
	.st0{fill:none;stroke:#000000;stroke-width:2;stroke-miterlimit:10;}
	.st1{fill:#1C542F;stroke:#000000;stroke-width:2;stroke-miterlimit:10;}
	.st2{fill:#174927;}
	.st3{fill:#368753;stroke:#000000;stroke-width:2;stroke-miterlimit:10;}
</style>
<line class="st0" x1="366.7" y1="427.4" x2="357.1" y2="427.4"/>
<line class="st0" x1="385.2" y1="408.1" x2="383.2" y2="414.4"/>
<path class="st1" d="M405.8,202h-32.5l-77-93.5c-6.7-8.1-7.7-18.2-2.4-22.6c5.4-4.4,15.1-1.5,21.7,6.7L405.8,202z"/>
<path class="st2" d="M266.6,369.6c0,0.2,0,0.4,0,0.6v-1.7C266.6,368.8,266.6,369.2,266.6,369.6z"/>
<path class="st2" d="M342.3,303.7c-0.1,0.4-0.1,0.8-0.2,1.1l-11.9,66.7c-1.3,5.8-7,9.6-12.9,8.5c-5.9-1.1-9.9-6.5-9.1-12.5l0,0
	l12.1-67.9c1.1-6.1,6.9-10.1,13-9.1C339.3,291.8,343.4,297.6,342.3,303.7z"/>
<path class="st2" d="M330.3,371c0,0.2-0.1,0.4-0.1,0.6l0.3-1.7C330.4,370.2,330.4,370.6,330.3,371z"/>
<path class="st0" d="M429.3,266.5l-44.1,141.5l-2,6.4c-3.1,6.6-9.2,11.5-16.6,13H144.9c-7.3-1.5-13.4-6.4-16.6-13l-2-6.4L82.2,266.5
	H429.3z"/>
<line class="st0" x1="154.4" y1="427.4" x2="144.9" y2="427.4"/>
<line class="st0" x1="128.3" y1="414.4" x2="126.4" y2="408.1"/>
<path class="st3" d="M450.7,222.6V246c0,11.4-9.2,20.6-20.6,20.6H81.4c-11.4,0-20.6-9.2-20.6-20.6v-23.4c0-11.4,9.2-20.6,20.6-20.6
	h348.7C441.5,202,450.7,211.2,450.7,222.6z"/>
<path class="st1" d="M215.2,108.5l-77,93.5h-32.5l90.1-109.4c6.7-8.1,16.4-11,21.7-6.7C223,90.3,221.9,100.4,215.2,108.5z"/>
<path class="st2" d="M266.6,301.2c0,0.4,0,0.8,0,1.1v67.8c-0.3,5.8-4.9,10.4-10.7,10.6v0c-0.1,0-0.2,0-0.3,0
	c-5.8-0.2-10.4-4.8-10.7-10.6v-67.8c0-0.4,0-0.7,0-1.1c0-6,4.7-10.9,10.7-11.2c0.1,0,0.2,0,0.3,0v0
	C261.9,290.3,266.6,295.2,266.6,301.2z"/>
<path class="st2" d="M244.9,369.6c0,0.2,0,0.4,0,0.6v-1.7C244.9,368.8,244.9,369.2,244.9,369.6z"/>
<path class="st2" d="M169.3,303.7c0.1,0.4,0.1,0.8,0.2,1.1l11.9,66.7c1.3,5.8,7,9.6,12.9,8.5c5.9-1.1,9.9-6.5,9.1-12.5l0,0
	l-12.1-67.9c-1.1-6.1-6.9-10.1-13-9.1C172.3,291.8,168.2,297.7,169.3,303.7z"/>
<path class="st2" d="M181.3,371c0,0.2,0.1,0.4,0.1,0.6l-0.3-1.7C181.1,370.3,181.2,370.7,181.3,371z"/>
</svg>
